<svg width="29" height="32" viewBox="0 0 29 32" fill="none" xmlns="http://www.w3.org/2000/svg">
<path fill-rule="evenodd" clip-rule="evenodd" d="M26.5171 23.1111H15.5983V30.2222H26.5171V23.1111ZM26.5171 1.77778H15.5983V16H26.5171V1.77778ZM9.35897 16H1.55983V30.2222H9.35897V16ZM9.35897 1.77778H1.55983V8.88889H9.35897V1.77778ZM15.5983 0C14.7368 0 14.0385 0.795947 14.0385 1.77778V16C14.0385 16.9819 14.7368 17.7778 15.5983 17.7778H26.5171C27.3786 17.7778 28.0769 16.9819 28.0769 16V1.77778C28.0769 0.795947 27.3786 0 26.5171 0H15.5983ZM15.5983 21.3333C14.7368 21.3333 14.0385 22.1292 14.0385 23.1111V30.2222C14.0385 31.2041 14.7368 32 15.5983 32H26.5171C27.3786 32 28.0769 31.2041 28.0769 30.2222V23.1111C28.0769 22.1292 27.3786 21.3333 26.5171 21.3333H15.5983ZM0 16C0 15.0182 0.698367 14.2222 1.55983 14.2222H9.35897C10.2204 14.2222 10.9188 15.0182 10.9188 16V30.2222C10.9188 31.2041 10.2204 32 9.35897 32H1.55983C0.698367 32 0 31.2041 0 30.2222V16ZM1.55983 0C0.698367 0 0 0.795947 0 1.77778V8.88889C0 9.87072 0.698367 10.6667 1.55983 10.6667H9.35897C10.2204 10.6667 10.9188 9.87072 10.9188 8.88889V1.77778C10.9188 0.795947 10.2204 0 9.35897 0H1.55983Z" fill="#5221E6"/>
</svg>
